ply
format ascii 1.0
element vertex 5
property float x
property float y
property float z
property uchar red
property uchar green
property uchar blue
element face 6
property list uchar int vertex_index
end_header
0.999971218035 0.00758703503821 -4.79232448013e-17 0 255 255
0.700673503355 -0.29311645982 0.299997143598 0 255 255
0.699270629898 0.306881900105 0.30000290005 0 255 255
1.30067186331 -0.291713586363 0.299997099922 0 255 255
1.29926898985 0.308284773562 0.300002856375 0 255 255
3 0 2 1
3 0 4 2
3 0 3 4
3 0 1 3
3 1 2 4
3 1 4 3
