ply
format ascii 1.0
element vertex 284
property float x
property float y
property float z
property uchar red
property uchar green
property uchar blue
end_header
2558.6 2558.6 2558.6 0 255 255
2558.6 2558.6 2558.6 0 255 255
2558.6 2558.6 2558.6 0 255 255
2558.6 2558.6 2558.6 0 255 255
2558.6 2558.6 2558.6 0 255 255
2558.6 2558.6 2558.6 0 255 255
2558.6 2558.6 2558.6 0 255 255
2558.6 2558.6 2558.6 0 255 255
2558.6 2558.6 2558.6 0 255 255
2558.6 2558.6 2558.6 0 255 255
2558.6 2558.6 2558.6 0 255 255
2558.6 2558.6 2558.6 0 255 255
2558.6 2558.6 2558.6 0 255 255
2558.6 2558.6 2558.6 0 255 255
2558.6 2558.6 2558.6 0 255 255
2558.6 2558.6 2558.6 0 255 255
2558.6 2558.6 2558.6 0 255 255
2558.6 2558.6 2558.6 0 255 255
2558.6 2558.6 2558.6 0 255 255
2558.6 2558.6 2558.6 0 255 255
2558.6 2558.6 2558.6 0 255 255
2558.6 2558.6 2558.6 0 255 255
2558.6 2558.6 2558.6 0 255 255
2558.6 2558.6 2558.6 0 255 255
2558.6 2558.6 2558.6 0 255 255
2558.6 2558.6 2558.6 0 255 255
2558.6 2558.6 2558.6 0 255 255
2558.6 2558.6 2558.6 0 255 255
2558.6 2558.6 2558.6 0 255 255
2558.6 2558.6 2558.6 0 255 255
2558.6 2558.6 2558.6 0 255 255
2558.6 2558.6 2558.6 0 255 255
2558.6 2558.6 2558.6 0 255 255
2558.6 2558.6 2558.6 0 255 255
2558.6 2558.6 2558.6 0 255 255
2558.6 2558.6 2558.6 0 255 255
2558.6 2558.6 2558.6 0 255 255
2558.6 2558.6 2558.6 0 255 255
2558.6 2558.6 2558.6 0 255 255
2558.6 2558.6 2558.6 0 255 255
2558.6 2558.6 2558.6 0 255 255
2558.6 2558.6 2558.6 0 255 255
2558.6 2558.6 2558.6 0 255 255
2558.6 2558.6 2558.6 0 255 255
2558.6 2558.6 2558.6 0 255 255
2558.6 2558.6 2558.6 0 255 255
2558.6 2558.6 2558.6 0 255 255
2558.6 2558.6 2558.6 0 255 255
2558.6 2558.6 2558.6 0 255 255
2558.6 2558.6 2558.6 0 255 255
2558.6 2558.6 2558.6 0 255 255
2558.6 2558.6 2558.6 0 255 255
2558.6 2558.6 2558.6 0 255 255
2558.6 2558.6 2558.6 0 255 255
2558.6 2558.6 2558.6 0 255 255
2558.6 2558.6 2558.6 0 255 255
2558.6 2558.6 2558.6 0 255 255
2558.6 2558.6 2558.6 0 255 255
2558.6 2558.6 2558.6 0 255 255
2558.6 2558.6 2558.6 0 255 255
2558.6 2558.6 2558.6 0 255 255
2558.6 2558.6 2558.6 0 255 255
2558.6 2558.6 2558.6 0 255 255
2558.6 2558.6 2558.6 0 255 255
2558.6 2558.6 2558.6 0 255 255
2558.6 2558.6 2558.6 0 255 255
2558.6 2558.6 2558.6 0 255 255
2558.6 2558.6 2558.6 0 255 255
2558.6 2558.6 2558.6 0 255 255
2558.6 2558.6 2558.6 0 255 255
2558.6 2558.6 2558.6 0 255 255
2558.6 2558.6 2558.6 0 255 255
2558.6 2558.6 2558.6 0 255 255
2558.6 2558.6 2558.6 0 255 255
2558.6 2558.6 2558.6 0 255 255
2558.6 2558.6 2558.6 0 255 255
2558.6 2558.6 2558.6 0 255 255
2558.6 2558.6 2558.6 0 255 255
2558.6 2558.6 2558.6 0 255 255
2558.6 2558.6 2558.6 0 255 255
2558.6 2558.6 2558.6 0 255 255
2558.6 2558.6 2558.6 0 255 255
2558.6 2558.6 2558.6 0 255 255
2558.6 2558.6 2558.6 0 255 255
2558.6 2558.6 2558.6 0 255 255
2558.6 2558.6 2558.6 0 255 255
2558.6 2558.6 2558.6 0 255 255
2558.6 2558.6 2558.6 0 255 255
2558.6 2558.6 2558.6 0 255 255
2558.6 2558.6 2558.6 0 255 255
2558.6 2558.6 2558.6 0 255 255
2558.6 2558.6 2558.6 0 255 255
2558.6 2558.6 2558.6 0 255 255
2558.6 2558.6 2558.6 0 255 255
2558.6 2558.6 2558.6 0 255 255
2558.6 2558.6 2558.6 0 255 255
2558.6 2558.6 2558.6 0 255 255
2558.6 2558.6 2558.6 0 255 255
2558.6 2558.6 2558.6 0 255 255
2558.6 2558.6 2558.6 0 255 255
2558.6 2558.6 2558.6 0 255 255
2558.6 2558.6 2558.6 0 255 255
2558.6 2558.6 2558.6 0 255 255
2558.6 2558.6 2558.6 0 255 255
2558.6 2558.6 2558.6 0 255 255
2558.6 2558.6 2558.6 0 255 255
2558.6 2558.6 2558.6 0 255 255
2558.6 2558.6 2558.6 0 255 255
2558.6 2558.6 2558.6 0 255 255
2558.6 2558.6 2558.6 0 255 255
2558.6 2558.6 2558.6 0 255 255
2558.6 2558.6 2558.6 0 255 255
2558.6 2558.6 2558.6 0 255 255
2558.6 2558.6 2558.6 0 255 255
2558.6 2558.6 2558.6 0 255 255
2558.6 2558.6 2558.6 0 255 255
2558.6 2558.6 2558.6 0 255 255
2558.6 2558.6 2558.6 0 255 255
2558.6 2558.6 2558.6 0 255 255
2558.6 2558.6 2558.6 0 255 255
2558.6 2558.6 2558.6 0 255 255
2558.6 2558.6 2558.6 0 255 255
2558.6 2558.6 2558.6 0 255 255
2558.6 2558.6 2558.6 0 255 255
2558.6 2558.6 2558.6 0 255 255
2558.6 2558.6 2558.6 0 255 255
2558.6 2558.6 2558.6 0 255 255
2558.6 2558.6 2558.6 0 255 255
2558.6 2558.6 2558.6 0 255 255
2558.6 2558.6 2558.6 0 255 255
2558.6 2558.6 2558.6 0 255 255
2558.6 2558.6 2558.6 0 255 255
2558.6 2558.6 2558.6 0 255 255
2558.6 2558.6 2558.6 0 255 255
2558.6 2558.6 2558.6 0 255 255
2558.6 2558.6 2558.6 0 255 255
2558.6 2558.6 2558.6 0 255 255
2558.6 2558.6 2558.6 0 255 255
2558.6 2558.6 2558.6 0 255 255
2558.6 2558.6 2558.6 0 255 255
2558.6 2558.6 2558.6 0 255 255
2558.6 2558.6 2558.6 0 255 255
2558.6 2558.6 2558.6 0 255 255
2558.6 2558.6 2558.6 0 255 255
2558.6 2558.6 2558.6 0 255 255
2558.6 2558.6 2558.6 0 255 255
2558.6 2558.6 2558.6 0 255 255
2558.6 2558.6 2558.6 0 255 255
2558.6 2558.6 2558.6 0 255 255
2558.6 2558.6 2558.6 0 255 255
2558.6 2558.6 2558.6 0 255 255
2558.6 2558.6 2558.6 0 255 255
2558.6 2558.6 2558.6 0 255 255
2558.6 2558.6 2558.6 0 255 255
2558.6 2558.6 2558.6 0 255 255
2558.6 2558.6 2558.6 0 255 255
2558.6 2558.6 2558.6 0 255 255
2558.6 2558.6 2558.6 0 255 255
2558.6 2558.6 2558.6 0 255 255
2558.6 2558.6 2558.6 0 255 255
2558.6 2558.6 2558.6 0 255 255
2558.6 2558.6 2558.6 0 255 255
2558.6 2558.6 2558.6 0 255 255
2558.6 2558.6 2558.6 0 255 255
2558.6 2558.6 2558.6 0 255 255
2558.6 2558.6 2558.6 0 255 255
2558.6 2558.6 2558.6 0 255 255
2558.6 2558.6 2558.6 0 255 255
2558.6 2558.6 2558.6 0 255 255
2558.6 2558.6 2558.6 0 255 255
2558.6 2558.6 2558.6 0 255 255
2558.6 2558.6 2558.6 0 255 255
2558.6 2558.6 2558.6 0 255 255
2558.6 2558.6 2558.6 0 255 255
2558.6 2558.6 2558.6 0 255 255
2558.6 2558.6 2558.6 0 255 255
2558.6 2558.6 2558.6 0 255 255
2558.6 2558.6 2558.6 0 255 255
2558.6 2558.6 2558.6 0 255 255
2558.6 2558.6 2558.6 0 255 255
2558.6 2558.6 2558.6 0 255 255
2558.6 2558.6 2558.6 0 255 255
2558.6 2558.6 2558.6 0 255 255
2558.6 2558.6 2558.6 0 255 255
2558.6 2558.6 2558.6 0 255 255
2558.6 2558.6 2558.6 0 255 255
2558.6 2558.6 2558.6 0 255 255
2558.6 2558.6 2558.6 0 255 255
2558.6 2558.6 2558.6 0 255 255
2558.6 2558.6 2558.6 0 255 255
2558.6 2558.6 2558.6 0 255 255
2558.6 2558.6 2558.6 0 255 255
2558.6 2558.6 2558.6 0 255 255
2558.6 2558.6 2558.6 0 255 255
2558.6 2558.6 2558.6 0 255 255
2558.6 2558.6 2558.6 0 255 255
2558.6 2558.6 2558.6 0 255 255
2558.6 2558.6 2558.6 0 255 255
2558.6 2558.6 2558.6 0 255 255
2558.6 2558.6 2558.6 0 255 255
2558.6 2558.6 2558.6 0 255 255
2558.6 2558.6 2558.6 0 255 255
2558.6 2558.6 2558.6 0 255 255
2558.6 2558.6 2558.6 0 255 255
2558.6 2558.6 2558.6 0 255 255
2558.6 2558.6 2558.6 0 255 255
2558.6 2558.6 2558.6 0 255 255
2558.6 2558.6 2558.6 0 255 255
2558.6 2558.6 2558.6 0 255 255
2558.6 2558.6 2558.6 0 255 255
2558.6 2558.6 2558.6 0 255 255
2558.6 2558.6 2558.6 0 255 255
2558.6 2558.6 2558.6 0 255 255
2558.6 2558.6 2558.6 0 255 255
2558.6 2558.6 2558.6 0 255 255
2558.6 2558.6 2558.6 0 255 255
2558.6 2558.6 2558.6 0 255 255
2558.6 2558.6 2558.6 0 255 255
2558.6 2558.6 2558.6 0 255 255
2558.6 2558.6 2558.6 0 255 255
2558.6 2558.6 2558.6 0 255 255
2558.6 2558.6 2558.6 0 255 255
2558.6 2558.6 2558.6 0 255 255
2558.6 2558.6 2558.6 0 255 255
2558.6 2558.6 2558.6 0 255 255
2558.6 2558.6 2558.6 0 255 255
2558.6 2558.6 2558.6 0 255 255
2558.6 2558.6 2558.6 0 255 255
2558.6 2558.6 2558.6 0 255 255
2558.6 2558.6 2558.6 0 255 255
2558.6 2558.6 2558.6 0 255 255
2558.6 2558.6 2558.6 0 255 255
2558.6 2558.6 2558.6 0 255 255
2558.6 2558.6 2558.6 0 255 255
2558.6 2558.6 2558.6 0 255 255
2558.6 2558.6 2558.6 0 255 255
2558.6 2558.6 2558.6 0 255 255
2558.6 2558.6 2558.6 0 255 255
2558.6 2558.6 2558.6 0 255 255
2558.6 2558.6 2558.6 0 255 255
2558.6 2558.6 2558.6 0 255 255
2558.6 2558.6 2558.6 0 255 255
2558.6 2558.6 2558.6 0 255 255
2558.6 2558.6 2558.6 0 255 255
2558.6 2558.6 2558.6 0 255 255
2558.6 2558.6 2558.6 0 255 255
2558.6 2558.6 2558.6 0 255 255
2558.6 2558.6 2558.6 0 255 255
2558.6 2558.6 2558.6 0 255 255
2558.6 2558.6 2558.6 0 255 255
2558.6 2558.6 2558.6 0 255 255
2558.6 2558.6 2558.6 0 255 255
2558.6 2558.6 2558.6 0 255 255
2558.6 2558.6 2558.6 0 255 255
2558.6 2558.6 2558.6 0 255 255
2558.6 2558.6 2558.6 0 255 255
2558.6 2558.6 2558.6 0 255 255
2558.6 2558.6 2558.6 0 255 255
2558.6 2558.6 2558.6 0 255 255
2558.6 2558.6 2558.6 0 255 255
2558.6 2558.6 2558.6 0 255 255
2558.6 2558.6 2558.6 0 255 255
2558.6 2558.6 2558.6 0 255 255
2558.6 2558.6 2558.6 0 255 255
2558.6 2558.6 2558.6 0 255 255
2558.6 2558.6 2558.6 0 255 255
2558.6 2558.6 2558.6 0 255 255
2558.6 2558.6 2558.6 0 255 255
2558.6 2558.6 2558.6 0 255 255
2558.6 2558.6 2558.6 0 255 255
2558.6 2558.6 2558.6 0 255 255
2558.6 2558.6 2558.6 0 255 255
2558.6 2558.6 2558.6 0 255 255
2558.6 2558.6 2558.6 0 255 255
2558.6 2558.6 2558.6 0 255 255
2558.6 2558.6 2558.6 0 255 255
2558.6 2558.6 2558.6 0 255 255
2558.6 2558.6 2558.6 0 255 255
2558.6 2558.6 2558.6 0 255 255
2558.6 2558.6 2558.6 0 255 255
2558.6 2558.6 2558.6 0 255 255
2558.6 2558.6 2558.6 0 255 255
2558.6 2558.6 2558.6 0 255 255
2558.6 2558.6 2558.6 0 255 255
